<svg xmlns="http://www.w3.org/2000/svg" xmlns:xlink="http://www.w3.org/1999/xlink" width="500" zoomAndPan="magnify" viewBox="0 0 375 74.999997" height="100" preserveAspectRatio="xMidYMid meet" version="1.0"><defs><g/></defs><g fill="#fffcfc" fill-opacity="1"><g transform="translate(2.914315, 54.031662)"><g><path d="M 32.515625 -28.359375 C 33.566406 -25.941406 34.09375 -23.316406 34.09375 -20.484375 C 34.09375 -17.648438 33.566406 -15.019531 32.515625 -12.59375 C 31.390625 -10.070312 29.921875 -7.890625 28.109375 -6.046875 C 26.265625 -4.203125 24.082031 -2.734375 21.5625 -1.640625 C 19.0625 -0.546875 16.414062 0 13.625 0 L 0 0 L 6.8125 -6.859375 L 13.625 -6.859375 C 15.5 -6.859375 17.269531 -7.203125 18.9375 -7.890625 C 19.757812 -8.265625 20.535156 -8.6875 21.265625 -9.15625 C 22.003906 -9.632812 22.679688 -10.203125 23.296875 -10.859375 C 24.523438 -12.148438 25.5 -13.597656 26.21875 -15.203125 C 26.9375 -16.910156 27.296875 -18.671875 27.296875 -20.484375 C 27.296875 -22.328125 26.9375 -24.082031 26.21875 -25.75 C 25.5 -27.394531 24.507812 -28.847656 23.25 -30.109375 C 21.988281 -31.367188 20.535156 -32.359375 18.890625 -33.078125 C 17.222656 -33.753906 15.46875 -34.09375 13.625 -34.09375 L 6.8125 -34.09375 L 0 -40.96875 L 13.625 -40.96875 C 16.351562 -40.96875 19 -40.421875 21.5625 -39.328125 C 24.050781 -38.234375 26.21875 -36.765625 28.0625 -34.921875 C 29.90625 -33.078125 31.390625 -30.890625 32.515625 -28.359375 Z M 32.515625 -28.359375 "/></g></g></g><g fill="#fffcfc" fill-opacity="1"><g transform="translate(40.084841, 54.031662)"><g><path d="M 17 -13.625 L 13.625 -6.859375 L 10.140625 0 L 2.5625 0 L 23.046875 -40.96875 L 36.71875 -13.625 L 29.03125 -13.625 L 23.046875 -25.65625 Z M 40.09375 -6.8125 L 43.515625 0 L 35.890625 0 L 32.515625 -6.8125 Z M 40.09375 -6.8125 "/></g></g></g><g fill="#fffcfc" fill-opacity="1"><g transform="translate(80.788179, 54.031662)"><g><path d="M 29.1875 -19.609375 C 27.613281 -17.328125 25.613281 -15.6875 23.1875 -14.6875 L 31.59375 0 L 23.765625 0 L 11.875 -20.53125 L 17.96875 -20.484375 C 19.8125 -20.484375 21.398438 -21.148438 22.734375 -22.484375 C 24.097656 -23.804688 24.78125 -25.425781 24.78125 -27.34375 C 24.78125 -29.1875 24.097656 -30.773438 22.734375 -32.109375 C 21.398438 -33.429688 19.8125 -34.09375 17.96875 -34.09375 L 4.296875 -34.09375 L 3.53125 -34.875 L 0 -40.96875 L 17.96875 -40.96875 C 21.726562 -40.96875 24.9375 -39.632812 27.59375 -36.96875 C 30.257812 -34.269531 31.59375 -31.0625 31.59375 -27.34375 C 31.59375 -24.4375 30.789062 -21.859375 29.1875 -19.609375 Z M 29.1875 -19.609375 "/></g></g></g><g fill="#fffcfc" fill-opacity="1"><g transform="translate(114.425858, 54.031662)"><g><path d="M 2.875 -17.609375 L 20.578125 0 Z M 20.578125 -40.96875 L 2.875 -23.296875 Z M 30.203125 -40.96875 L 9.734375 -20.484375 L 30.203125 0 L 20.578125 0 L 2.875 -17.609375 L 0 -20.4375 L 2.875 -23.296875 L 20.578125 -40.96875 Z M 30.203125 -40.96875 "/></g></g></g><g fill="#fffcfc" fill-opacity="1"><g transform="translate(145.228665, 54.031662)"><g/></g></g><g fill="#fffcfc" fill-opacity="1"><g transform="translate(152.702931, 54.031662)"><g/></g></g><g fill="#fffcfc" fill-opacity="1"><g transform="translate(160.191536, 54.031662)"><g><path d="M 17 -13.625 L 13.625 -6.859375 L 10.140625 0 L 2.5625 0 L 23.046875 -40.96875 L 36.71875 -13.625 L 29.03125 -13.625 L 23.046875 -25.65625 Z M 40.09375 -6.8125 L 43.515625 0 L 35.890625 0 L 32.515625 -6.8125 Z M 40.09375 -6.8125 "/></g></g></g><g fill="#fffcfc" fill-opacity="1"><g transform="translate(200.894874, 54.031662)"><g><path d="M 29.1875 -19.609375 C 27.613281 -17.328125 25.613281 -15.6875 23.1875 -14.6875 L 31.59375 0 L 23.765625 0 L 11.875 -20.53125 L 17.96875 -20.484375 C 19.8125 -20.484375 21.398438 -21.148438 22.734375 -22.484375 C 24.097656 -23.804688 24.78125 -25.425781 24.78125 -27.34375 C 24.78125 -29.1875 24.097656 -30.773438 22.734375 -32.109375 C 21.398438 -33.429688 19.8125 -34.09375 17.96875 -34.09375 L 4.296875 -34.09375 L 3.53125 -34.875 L 0 -40.96875 L 17.96875 -40.96875 C 21.726562 -40.96875 24.9375 -39.632812 27.59375 -36.96875 C 30.257812 -34.269531 31.59375 -31.0625 31.59375 -27.34375 C 31.59375 -24.4375 30.789062 -21.859375 29.1875 -19.609375 Z M 29.1875 -19.609375 "/></g></g></g><g fill="#fffcfc" fill-opacity="1"><g transform="translate(234.532552, 54.031662)"><g><path d="M 2.875 -17.609375 L 20.578125 0 Z M 20.578125 -40.96875 L 2.875 -23.296875 Z M 30.203125 -40.96875 L 9.734375 -20.484375 L 30.203125 0 L 20.578125 0 L 2.875 -17.609375 L 0 -20.4375 L 2.875 -23.296875 L 20.578125 -40.96875 Z M 30.203125 -40.96875 "/></g></g></g><g fill="#fffcfc" fill-opacity="1"><g transform="translate(265.303017, 54.031662)"><g><path d="M 17 -13.625 L 13.625 -6.859375 L 10.140625 0 L 2.5625 0 L 23.046875 -40.96875 L 36.71875 -13.625 L 29.03125 -13.625 L 23.046875 -25.65625 Z M 40.09375 -6.8125 L 43.515625 0 L 35.890625 0 L 32.515625 -6.8125 Z M 40.09375 -6.8125 "/></g></g></g><g fill="#fffcfc" fill-opacity="1"><g transform="translate(306.006355, 54.031662)"><g><path d="M 32.515625 -28.359375 C 33.566406 -25.941406 34.09375 -23.316406 34.09375 -20.484375 C 34.09375 -17.648438 33.566406 -15.019531 32.515625 -12.59375 C 31.390625 -10.070312 29.921875 -7.890625 28.109375 -6.046875 C 26.265625 -4.203125 24.082031 -2.734375 21.5625 -1.640625 C 19.0625 -0.546875 16.414062 0 13.625 0 L 0 0 L 6.8125 -6.859375 L 13.625 -6.859375 C 15.5 -6.859375 17.269531 -7.203125 18.9375 -7.890625 C 19.757812 -8.265625 20.535156 -8.6875 21.265625 -9.15625 C 22.003906 -9.632812 22.679688 -10.203125 23.296875 -10.859375 C 24.523438 -12.148438 25.5 -13.597656 26.21875 -15.203125 C 26.9375 -16.910156 27.296875 -18.671875 27.296875 -20.484375 C 27.296875 -22.328125 26.9375 -24.082031 26.21875 -25.75 C 25.5 -27.394531 24.507812 -28.847656 23.25 -30.109375 C 21.988281 -31.367188 20.535156 -32.359375 18.890625 -33.078125 C 17.222656 -33.753906 15.46875 -34.09375 13.625 -34.09375 L 6.8125 -34.09375 L 0 -40.96875 L 13.625 -40.96875 C 16.351562 -40.96875 19 -40.421875 21.5625 -39.328125 C 24.050781 -38.234375 26.21875 -36.765625 28.0625 -34.921875 C 29.90625 -33.078125 31.390625 -30.890625 32.515625 -28.359375 Z M 32.515625 -28.359375 "/></g></g></g><g fill="#fffcfc" fill-opacity="1"><g transform="translate(343.176872, 54.031662)"><g><path d="M 0 -0.5625 L 6.8125 -6.859375 L 27.296875 -6.859375 L 27.296875 0 L 0 0 Z M 0 -40.96875 L 27.296875 -40.96875 L 27.296875 -34.09375 L 6.8125 -34.09375 Z M 0 -23.859375 L 27.296875 -23.859375 L 27.296875 -17.046875 L 0 -17.046875 Z M 0 -23.859375 "/></g></g></g></svg>